<svg xmlns="http://www.w3.org/2000/svg" viewBox="0 0 800 460" role="img" aria-label="Composición de cartuchos y controles de videojuegos"><defs><linearGradient id="g"><stop stop-color="#2d3b47"/><stop offset="1" stop-color="#758e94"/></linearGradient></defs><rect width="800" height="460" fill="url(#g)"/><path d="M0 410L800 140V460H0" fill="#ebdfd4" opacity=".5"/><g transform="translate(135 28) rotate(-9 220 210)"><rect x="35" y="22" width="360" height="397" rx="13" fill="#0d1b24" stroke="#b3a99d" stroke-width="9"/><rect x="73" y="64" width="285" height="200" fill="#151b27"/><rect x="83" y="75" width="265" height="180" fill="#b24c48"/><path d="M84 218L147 130L213 213L259 151L345 218" fill="none" stroke="#f5dba5" stroke-width="15"/><rect x="102" y="300" width="224" height="14" fill="#e3d6bb"/><rect x="102" y="332" width="178" height="10" fill="#92acac"/><rect x="102" y="358" width="122" height="10" fill="#92acac"/></g><g transform="translate(430 228) rotate(10)"><rect x="0" y="0" width="259" height="120" rx="60" fill="#f2ebdd" stroke="#333a3c" stroke-width="8"/><path d="M72 32V87M44 59H100" stroke="#26333a" stroke-width="16" stroke-linecap="round"/><circle cx="175" cy="46" r="17" fill="#b34242"/><circle cx="202" cy="73" r="17" fill="#b34242"/></g><g fill="none" stroke="#f7e8ca" stroke-width="6"><path d="M694 62H735M715 42V83"/><circle cx="78" cy="360" r="20"/></g></svg>
